<?xml version="1.0" encoding="utf-8"?>
<!-- Generator: Adobe Illustrator 19.2.1, SVG Export Plug-In . SVG Version: 6.00 Build 0)  -->
<svg version="1.1" id="Layer_1" xmlns="http://www.w3.org/2000/svg" xmlns:xlink="http://www.w3.org/1999/xlink" x="0px" y="0px"
	 viewBox="0 0 165 15" style="enable-background:new 0 0 165 15;" xml:space="preserve">
<style type="text/css">
	.st0{fill:#FFFFFF;}
</style>
<g>
	<path class="st0" d="M6.1,14L1.9,1H5l3,10.3h0.1l3-10.3h2.9L9.9,14H6.1z"/>
	<path class="st0" d="M20.8,1l4.6,13h-3l-1.1-3.2h-4.3l-1,3.2h-2.9l4.3-13H20.8z M19.1,3.6L19.1,3.6l-1.7,5h3.3L19.1,3.6z"/>
	<path class="st0" d="M34.5,14l-5-9.2V14h-2.5V1h3.3l4.9,9.2V1h2.5v13H34.5z"/>
	<path class="st0" d="M40.3,14V1h4.6c4.5,0,6.5,2.4,6.5,6.3c0,4-2.1,6.7-6.8,6.7H40.3z M44.4,11.8c3,0,4.1-1.6,4.1-4.3
		c0-3.2-1.3-4.2-3.9-4.2h-1.6v8.6H44.4z"/>
	<path class="st0" d="M56.1,11.7h5.8V14h-8.6V1h8.3v2.3h-5.5v3.1h5.2v2.3h-5.2V11.7z"/>
	<path class="st0" d="M66.6,11.7h5.6V14h-8.4V1h2.8V11.7z"/>
	<path class="st0" d="M80.7,1l4.6,13h-3l-1.1-3.2h-4.3l-1,3.2H73l4.3-13H80.7z M79,3.6L79,3.6l-1.7,5h3.3L79,3.6z"/>
	<path class="st0" d="M91,14h-2.8V9.1L83.7,1h3l2.9,5.6h0.1L92.5,1h2.8L91,9.1V14z"/>
	<path class="st0" d="M99.4,14V1h4.6c4.5,0,6.5,2.4,6.5,6.3c0,4-2.1,6.7-6.8,6.7H99.4z M103.5,11.8c3,0,4.1-1.6,4.1-4.3
		c0-3.2-1.3-4.2-3.9-4.2h-1.6v8.6H103.5z"/>
	<path class="st0" d="M115.2,11.7h5.8V14h-8.6V1h8.3v2.3h-5.5v3.1h5.2v2.3h-5.2V11.7z"/>
	<path class="st0" d="M125,4.3c0,2.7,6.8,1,6.8,5.8c0,3-2.4,4.1-5,4.1c-2.3,0-4.8-0.8-5-4.1l2.5-0.4c0.2,1.3,0.7,2.3,2.6,2.3
		c1.2,0,2.2-0.4,2.2-1.6c0-2.7-6.8-0.8-6.8-5.8c0-2.5,2.1-3.9,4.8-3.9c2.3,0,4.4,0.7,4.6,3.8l-2.5,0.3c-0.1-1.2-0.6-2-2.1-2
		C125.6,2.9,125,3.5,125,4.3z"/>
	<path class="st0" d="M136.4,14h-2.8V1h2.8V14z"/>
	<path class="st0" d="M147.6,12.4c-0.6,1.2-2.1,1.8-3.7,1.8c-3.9,0-5.5-2.7-5.5-6.5c0-4.2,2.2-7,6.3-7c2.8,0,4.9,1.3,5.1,4.6
		l-2.6,0.3c-0.1-1.4-0.7-2.5-2.6-2.5c-2.3,0-3.4,1.6-3.4,4.4c0,3.1,1,4.5,3.3,4.5c1.7,0,2.7-1,2.7-2.3V9.3h-2.4v-2h5.1V14h-2
		L147.6,12.4z"/>
	<path class="st0" d="M159.9,14l-5-9.2V14h-2.5V1h3.3l4.9,9.2V1h2.5v13H159.9z"/>
</g>
</svg>
