<?xml version="1.0" encoding="utf-8"?>
<!-- Generator: Adobe Illustrator 15.0.0, SVG Export Plug-In . SVG Version: 6.00 Build 0)  -->
<!DOCTYPE svg PUBLIC "-//W3C//DTD SVG 1.1//EN" "http://www.w3.org/Graphics/SVG/1.1/DTD/svg11.dtd">
<svg version="1.1" id="Layer_1" xmlns="http://www.w3.org/2000/svg" xmlns:xlink="http://www.w3.org/1999/xlink" x="0px" y="0px"
	 width="66px" height="66px" viewBox="273 363 66 66" enable-background="new 273 363 66 66" xml:space="preserve">
<path fill="#FFFFFF" d="M333.031,377.671c-3.562,1.271-4.066,1.102-2.303-0.804c1.299-1.356,2.85-3.814,2.85-4.534
	c0-0.126-0.629,0.084-1.342,0.466c-0.754,0.424-2.434,1.06-3.689,1.439l-2.262,0.723l-2.053-1.4
	c-1.135-0.762-2.725-1.609-3.562-1.863c-2.139-0.593-5.408-0.509-7.336,0.17c-5.238,1.905-8.547,6.821-8.172,12.201l0.127,2.076
	l-2.096-0.254c-7.627-0.974-14.291-4.277-19.949-9.83l-2.766-2.754l-0.713,2.034c-1.508,4.534-0.545,9.322,2.6,12.542
	c1.676,1.78,1.297,2.034-1.594,0.974c-1.006-0.338-1.887-0.592-1.969-0.466c-0.293,0.298,0.711,4.152,1.508,5.678
	c1.09,2.119,3.309,4.193,5.742,5.424l2.055,0.975l-2.432,0.041c-2.346,0-2.43,0.043-2.178,0.935c0.838,2.756,4.148,5.68,7.836,6.951
	l2.598,0.889l-2.262,1.355c-3.352,1.952-7.293,3.049-11.232,3.131c-1.889,0.043-3.438,0.213-3.438,0.343
	c0,0.422,5.115,2.793,8.088,3.729c8.926,2.755,19.531,1.564,27.493-3.137c5.658-3.347,11.312-10,13.955-16.44
	c1.426-3.432,2.852-9.704,2.852-12.709c0-1.95,0.125-2.204,2.473-4.534c1.383-1.355,2.68-2.838,2.934-3.262
	C335.211,376.952,335.168,376.952,333.031,377.671z"/>
</svg>
